<svg id="Layer_2" data-name="Layer 2" xmlns="http://www.w3.org/2000/svg" viewBox="0 0 451.05 466.21" fill="#15181B"><title>reform-collective-ultra-2</title><path d="M18.93,175.25C6.1,167,0,151.11,0,139.42s5.84-27.7,18.93-35.83C33.29,94.7,53.62,93,68.87,93s34.43,1.65,48.79,10.55c13,8,19.19,24.14,19.19,35.83s-6.35,27.7-19.19,35.83c-14.36,9.15-35.7,9.91-48.92,9.91S33.29,184.53,18.93,175.25ZM87.42,153.4a16.58,16.58,0,0,0,0-27.57c-5.46-3.56-13.72-3.56-18.81-3.56s-13.72.13-19.31,3.56c-5,3-7.24,9.28-7.24,13.85s2.29,10.55,7.24,13.72c5.59,3.56,14.1,3.81,19.19,3.81S81.83,157.08,87.42,153.4Z"/><path d="M259.07,157l12.2,26.3H225.4l-10.67-22.87H186.65v22.87H143.19V94.32h91.48c7.88,0,21,1.27,28.84,7.12,7.37,6.48,9.28,16.65,9.28,25.92,0,8.51-1.65,19.69-8.51,25.41C262.12,154.54,260.6,155.94,259.07,157Zm-72.42-24.9h26c3,0,7.24,0,10.17-.76a4.11,4.11,0,0,0,3.3-3.69c0-1.14-.76-2.67-3.3-3.43-2.8-.89-7.24-.64-10.17-.64h-26Z"/><path d="M422.72,183.26h-44V150.35l-19.82,32.91H341.78L321.83,150.1v33.16h-44V94.32h44L350.42,142l28.33-47.39v-.25h44Z"/><path d="M115.62,338.85v33H1.27V282.95H51.71v55.91Z"/><path d="M171.78,307.72v6.86H240v24.78H171.78v7.75h69.63v24.78H120.7V282.95H241.41v24.78Z"/><path d="M265.29,292c14-8.26,36.08-10.29,49.81-10.29,13,0,35.83,3.43,48.92,10.29,14.36,7.5,18.55,19.82,19.19,32.27H341a12.86,12.86,0,0,0-7.12-10c-5.08-2.54-14.61-3.43-18.93-3.43-4.7,0-13.85.25-19.19,3.43s-7.24,9.28-7.24,14,2,10.67,7.24,13.72c5.59,3.3,14.23,3.81,19.19,3.81,5.34,0,13.09-.38,18.93-3.81,3.69-2.16,6-6.35,6.86-10h42.31c-1.14,10.8-7.5,25-19.06,31.76-14.87,8.64-34.94,9.91-48.92,9.91-12.83,0-35.45-1.14-49.81-9.91-13.21-8.13-18.8-23.38-18.8-35.45C246.49,315.73,251.32,300.23,265.29,292Z"/></svg>