<svg id="Layer_2" data-name="Layer 2" xmlns="http://www.w3.org/2000/svg" viewBox="0 0 451.05 466.21" fill="#15181B"><title>reform-collective-ultra-1</title><path d="M117.15,62.64l12.2,26.3H83.48L72.81,66.07H44.73V88.94H1.27V0H92.75c7.88,0,21,1.27,28.84,7.12C129,13.6,130.87,23.76,130.87,33c0,8.51-1.65,19.69-8.51,25.41C120.2,60.23,118.67,61.62,117.15,62.64ZM44.73,37.74h26c3,0,7.24,0,10.17-.76a4.11,4.11,0,0,0,3.3-3.69c0-1.14-.76-2.67-3.3-3.43-2.8-.89-7.24-.64-10.17-.64h-26Z"/><path d="M187,24.78v6.86h68.23V56.41H187v7.75h69.63V88.94H136V0H256.66V24.78Z"/><path d="M312.81,24.78v6.86H381V56.41H312.81V88.94H261.74V0H382.44V24.78Z"/><path d="M20.08,197.65c14-8.26,36.08-10.29,49.81-10.29,13,0,35.83,3.43,48.92,10.29,14.36,7.5,18.55,19.82,19.19,32.27H95.8a12.85,12.85,0,0,0-7.12-10c-5.08-2.54-14.61-3.43-18.93-3.43-4.7,0-13.85.25-19.19,3.43s-7.24,9.28-7.24,14,2,10.67,7.24,13.72c5.59,3.3,14.23,3.81,19.19,3.81,5.34,0,13.09-.38,18.93-3.81,3.68-2.16,6-6.35,6.86-10h42.31c-1.14,10.8-7.5,25-19.06,31.77-14.87,8.64-34.94,9.91-48.92,9.91-12.83,0-35.45-1.14-49.81-9.91C6.86,261.18,1.27,245.94,1.27,233.87,1.27,221.41,6.1,205.91,20.08,197.65Z"/><path d="M160.73,269.57c-12.83-8.26-18.93-24.14-18.93-35.83s5.84-27.7,18.93-35.83c14.36-8.89,34.69-10.55,49.93-10.55s34.43,1.65,48.79,10.55c13,8,19.19,24.14,19.19,35.83s-6.35,27.7-19.19,35.83c-14.36,9.15-35.7,9.91-48.92,9.91S175.08,278.84,160.73,269.57Zm68.49-21.85a16.58,16.58,0,0,0,0-27.57c-5.46-3.56-13.72-3.56-18.8-3.56s-13.72.13-19.31,3.56c-5,3-7.24,9.28-7.24,13.85s2.29,10.55,7.24,13.72c5.59,3.56,14.1,3.81,19.19,3.81S223.62,251.4,229.21,247.72Z"/><path d="M399.34,244.54v33H285V188.63h50.44v55.91Z"/><path d="M127.06,411.57H89.45v54.64H38.63V411.57H0V377.26H127.06Z"/><path d="M176.61,377.26v88.94H132.14V377.26Z"/><path d="M326.54,377.26l-40.28,88.94H221.84l-40.15-88.94h44.73l27.7,61,27.57-61Z"/><path d="M381.42,402v6.86h68.23v24.78H381.42v7.75h69.63v24.78H330.34V377.26H451.05V402Z"/></svg>